<svg width="24" height="24" viewBox="0 0 24 24" fill="none" xmlns="http://www.w3.org/2000/svg">
<path fill-rule="evenodd" clip-rule="evenodd" d="M7.60057 2.18176H16.3991C19.3872 2.18176 21.8182 4.61276 21.8181 7.60069V16.3992C21.8181 19.3871 19.3872 21.8181 16.3991 21.8181H7.60057C4.61264 21.8181 2.18176 19.3872 2.18176 16.3992V7.60069C2.18176 4.61276 4.61264 2.18176 7.60057 2.18176ZM16.3992 20.0759C18.4266 20.0759 20.076 18.4266 20.076 16.3992H20.0759V7.60069C20.0759 5.57343 18.4265 3.924 16.3991 3.924H7.60057C5.57331 3.924 3.924 5.57343 3.924 7.60069V16.3992C3.924 18.4266 5.57331 20.076 7.60057 20.0759H16.3992ZM6.85709 12.0001C6.85709 9.16418 9.16413 6.85709 11.9999 6.85709C14.8358 6.85709 17.1428 9.16418 17.1428 12.0001C17.1428 14.8358 14.8358 17.1428 11.9999 17.1428C9.16413 17.1428 6.85709 14.8358 6.85709 12.0001ZM8.62792 11.9999C8.62792 13.8592 10.1407 15.3718 11.9999 15.3718C13.8592 15.3718 15.372 13.8592 15.372 11.9999C15.372 10.1405 13.8593 8.62784 11.9999 8.62784C10.1406 8.62784 8.62792 10.1405 8.62792 11.9999Z" fill="#D9D9D9"/>
<mask id="mask0_36_5356" style="mask-type:luminance" maskUnits="userSpaceOnUse" x="2" y="2" width="20" height="20">
<path fill-rule="evenodd" clip-rule="evenodd" d="M7.60057 2.18176H16.3991C19.3872 2.18176 21.8182 4.61276 21.8181 7.60069V16.3992C21.8181 19.3871 19.3872 21.8181 16.3991 21.8181H7.60057C4.61264 21.8181 2.18176 19.3872 2.18176 16.3992V7.60069C2.18176 4.61276 4.61264 2.18176 7.60057 2.18176ZM16.3992 20.0759C18.4266 20.0759 20.076 18.4266 20.076 16.3992H20.0759V7.60069C20.0759 5.57343 18.4265 3.924 16.3991 3.924H7.60057C5.57331 3.924 3.924 5.57343 3.924 7.60069V16.3992C3.924 18.4266 5.57331 20.076 7.60057 20.0759H16.3992ZM6.85709 12.0001C6.85709 9.16418 9.16413 6.85709 11.9999 6.85709C14.8358 6.85709 17.1428 9.16418 17.1428 12.0001C17.1428 14.8358 14.8358 17.1428 11.9999 17.1428C9.16413 17.1428 6.85709 14.8358 6.85709 12.0001ZM8.62792 11.9999C8.62792 13.8592 10.1407 15.3718 11.9999 15.3718C13.8592 15.3718 15.372 13.8592 15.372 11.9999C15.372 10.1405 13.8593 8.62784 11.9999 8.62784C10.1406 8.62784 8.62792 10.1405 8.62792 11.9999Z" fill="white"/>
</mask>
<g mask="url(#mask0_36_5356)">
</g>
</svg>
