<svg width="95" height="32" viewBox="0 0 95 32" fill="none" xmlns="http://www.w3.org/2000/svg">
<path d="M14.626 9.94595C19.0055 11.4917 23.7285 11.4058 28.0651 9.73128C28.108 7.97089 27.6357 6.2105 26.8199 4.62186L26.3906 3.76313C26.2618 3.80607 26.09 3.89195 26.0041 3.97782C22.054 5.86702 17.5886 6.12463 13.4238 4.62187C10.5042 3.5914 7.32687 3.84901 4.57895 5.22297L3.72023 5.65233C3.76316 5.78114 3.84904 5.95288 3.93492 6.03875C4.45015 7.1551 4.87951 8.35732 5.18006 9.60247C8.1856 8.74374 11.5346 8.82961 14.626 9.94595Z" fill="#D9D9D9"/>
<path d="M3.93493 22.8698L4.87952 22.3545C6.7935 21.3975 8.90498 20.9343 11 20.9954C12.2888 21.033 13.5713 21.2689 14.7978 21.7105C15.1973 21.8522 15.5981 21.9824 16 22.1011V26.6777C14.3376 26.3686 12.6547 26.3244 11 26.5375C9.28349 26.7584 7.59733 27.2562 5.99586 28.0221C5.90999 28.108 5.73824 28.1939 5.60943 28.2368L5.18007 27.3781C4.45015 25.9612 4.0208 24.4155 3.93493 22.8698Z" fill="#D9D9D9"/>
<path d="M4.45002 18.9196C8.0996 17.4169 12.1786 17.288 15.914 18.6191C19.3489 19.8213 22.9985 20.036 26.4334 19.2631C26.3905 17.331 26.6481 15.4418 27.3351 13.5526C22.8267 14.8836 17.9749 14.7548 13.4666 13.1662C10.8905 12.2216 8.05667 12.2216 5.48049 13.0803C5.52343 14.9266 5.17995 16.8157 4.5359 18.662C4.5359 18.662 4.49296 18.7908 4.45002 18.9196Z" fill="#D9D9D9"/>
</svg>
