<svg width="25" height="24" viewBox="0 0 25 24" fill="none" xmlns="http://www.w3.org/2000/svg">
<path d="M15.3299 11.29L11.0899 7.05001C10.997 6.95628 10.8864 6.88189 10.7645 6.83112C10.6427 6.78035 10.512 6.75421 10.3799 6.75421C10.2479 6.75421 10.1172 6.78035 9.99537 6.83112C9.87351 6.88189 9.76291 6.95628 9.66994 7.05001C9.48369 7.23737 9.37915 7.49082 9.37915 7.75501C9.37915 8.0192 9.48369 8.27265 9.66994 8.46001L13.2099 12L9.66994 15.54C9.48369 15.7274 9.37915 15.9808 9.37915 16.245C9.37915 16.5092 9.48369 16.7626 9.66994 16.95C9.76338 17.0427 9.8742 17.116 9.99604 17.1658C10.1179 17.2155 10.2483 17.2408 10.3799 17.24C10.5115 17.2408 10.642 17.2155 10.7638 17.1658C10.8857 17.116 10.9965 17.0427 11.0899 16.95L15.3299 12.71C15.4237 12.617 15.4981 12.5064 15.5488 12.3846C15.5996 12.2627 15.6257 12.132 15.6257 12C15.6257 11.868 15.5996 11.7373 15.5488 11.6154C15.4981 11.4936 15.4237 11.383 15.3299 11.29Z" fill="#185013"/>
</svg>
